<?xml version="1.0" encoding="UTF-8"?>
<svg xmlns="http://www.w3.org/2000/svg" style="display:none">
  <symbol id="icon-clock" viewBox="0 0 24 24">
    <path d="M12 2a10 10 0 100 20 10 10 0 000-20zm1 11h4v2h-6V6h2v7z"/>
  </symbol>
  <symbol id="icon-user" viewBox="0 0 24 24">
    <path d="M12 12a5 5 0 100-10 5 5 0 000 10zm0 2c-5 0-9 2.5-9 5v1h18v-1c0-2.5-4-5-9-5z"/>
  </symbol>
  <symbol id="icon-edit" viewBox="0 0 24 24">
    <path d="M3 17.25V21h3.75L17.81 9.94l-3.75-3.75L3 17.25zM20.71 7.04a1 1 0 000-1.41l-2.34-2.34a1 1 0 00-1.41 0l-1.83 1.83 3.75 3.75 1.83-1.83z"/>
  </symbol>
  <symbol id="icon-members" viewBox="0 0 24 24">
    <path d="M16 11c1.66 0 2.99-1.34 2.99-3S17.66 5 16 5s-3 1.34-3 3 1.34 3 3 3zm-8 0c1.66 0 2.99-1.34 2.99-3S9.66 5 8 5 5 6.34 5 8s1.34 3 3 3zm0 2c-2.33 0-7 1.17-7 3.5V19h14v-2.5C13 14.17 8.33 13 6 13zM16 13c-.29 0-.62.02-.97.05 1.16.84 1.97 1.97 1.97 3.45V19h6v-2.5c0-2.33-4.67-3.5-6-3.5z"/>
  </symbol>
</svg>
